<svg xmlns="http://www.w3.org/2000/svg" width="28.273" height="24.417" viewBox="0 0 28.273 24.417">
  <path id="home" d="M15.136,2a1.285,1.285,0,0,0-.913.381L1.261,13.692a.643.643,0,0,0,.382,1.16H4.855V25.132a1.286,1.286,0,0,0,1.285,1.285h5.141a1.286,1.286,0,0,0,1.285-1.285V17.422h5.141v7.711a1.286,1.286,0,0,0,1.285,1.285h5.141a1.286,1.286,0,0,0,1.285-1.285V14.851H28.63a.643.643,0,0,0,.382-1.16L16.058,2.389l-.008-.008A1.285,1.285,0,0,0,15.136,2Z" transform="translate(-1 -2)" fill="#fff"/>
</svg>
