<svg xmlns="http://www.w3.org/2000/svg" xmlns:xlink="http://www.w3.org/1999/xlink" width="580.785" height="389.951" viewBox="0 0 580.785 389.951">
  <defs>
    <clipPath id="clip-path">
      <path id="path5" d="M279.3-255.324c-2.7,18.964-3.683,38.3-7.84,57.012-.91,4.1-1.551,8.6-4.331,11.835,2.968-17.248,3.388-34.985-.038-52.14-1.565-7.845-4.656-15.549-10-21.5-3.446-3.83-7.777-6.888-10.653-11.163s-3.877-10.522-.393-14.316c-.546.593-5.133-1.956-5.751-2.319a22.263,22.263,0,0,1-5.107-4.14,20.315,20.315,0,0,1-5.552-12.658c-.094-1.615.545-3.794,2.16-3.684a44.777,44.777,0,0,1-6.741-6.465,14.644,14.644,0,0,1-3.45-9.642c.146-3.552,1.316-4.35,4.521-5.581a31.4,31.4,0,0,1-1.546-5.524,9.072,9.072,0,0,1,.718-5.531,6.026,6.026,0,0,1,4.837-3.066,6.021,6.021,0,0,1,5.164,2.475c.381-2.1,2.66-3.455,4.791-3.393a9.732,9.732,0,0,1,5.72,2.585c4.469,3.709,5.8,8.774,7.927,13.985,2.671-1.247,6-.317,8.166,1.676a14.855,14.855,0,0,1,4.017,7.726c1.065,4.588.975,9.355.879,14.063,1.873-1.46,4.733-1.094,6.6.372a10.363,10.363,0,0,1,3.374,6.112c1.369,6.43-.7,13.072-3.2,19.153a4.875,4.875,0,0,1,5.574,1.027c5.245,5.088,1.353,15.034.444,21.116q-.147.991-.289,1.983" transform="translate(-221.591 345.123)"/>
    </clipPath>
    <clipPath id="clip-path-2">
      <path id="path8" d="M225.866-286.24a88.2,88.2,0,0,1,11.351,6.787c34.29,24.139,47.618,70.164,44.776,110.515-8.091-18.773-19.768-37.3-35.087-50.976-9.292-8.3-17.229-17.429-26.058-26.171a70.687,70.687,0,0,1-19.721-60.389c2.754,10.679,14.87,15.308,24.739,20.235" transform="translate(-200.292 306.475)"/>
    </clipPath>
    <clipPath id="clip-path-3">
      <path id="path11" d="M366.4-247.247c7.95,14.553,14.617,29.932,23.668,43.838,1.983,3.044,3.87,6.505,7.106,8.281-7.644-13.083-13.371-27.335-15.8-42.283-1.112-6.835-.947-14.02,1.584-20.465,1.63-4.152,4.212-7.946,5.245-12.284s-.051-9.708-4.029-11.727c.624.316,3.567-3.143,3.959-3.626a19.308,19.308,0,0,0,2.882-4.906,17.6,17.6,0,0,0,.658-11.949c-.415-1.339-1.595-2.91-2.871-2.331a38.6,38.6,0,0,0,3.5-7.288,12.676,12.676,0,0,0-.131-8.863c-1.2-2.835-2.387-3.127-5.36-3.152a27.244,27.244,0,0,0-.425-4.949,7.846,7.846,0,0,0-2.26-4.264,5.214,5.214,0,0,0-4.852-1.017,5.216,5.216,0,0,0-3.436,3.575,4.031,4.031,0,0,0-4.913-1.3,8.426,8.426,0,0,0-3.853,3.833c-2.5,4.364-2.034,8.874-2.18,13.745a6.656,6.656,0,0,0-6.111,3.838,12.854,12.854,0,0,0-.91,7.483,49.339,49.339,0,0,0,3.557,11.668,4.791,4.791,0,0,0-5.238,2.307,8.955,8.955,0,0,0-.878,5.978c.841,5.63,4.534,10.387,8.408,14.556a4.22,4.22,0,0,0-4.207,2.527c-2.708,5.716,3.468,12.6,6.052,17.252q.42.758.836,1.519" transform="translate(-355.168 334.451)"/>
    </clipPath>
    <clipPath id="clip-path-4">
      <path id="path14" d="M328.159-321.767a96.433,96.433,0,0,1,11.724,8.506c35.062,29.665,45.13,81.169,38.111,124.912-7-21.267-17.942-42.61-33.324-59.019-9.332-9.955-17.1-20.687-25.885-31.082a77.415,77.415,0,0,1-15.646-67.794c1.966,11.917,14.735,18.143,25.021,24.478" transform="translate(-300.903 346.245)"/>
    </clipPath>
    <clipPath id="clip-path-5">
      <path id="path17" d="M398.938-293.2a98.774,98.774,0,0,0-8.295,12.307c-23.323,40.868-14.918,93.973,7.205,133.608-.733-22.928,2.3-47.314,11.339-68.511,5.483-12.857,9.192-25.917,13.992-39.008a79.317,79.317,0,0,0-8.76-70.745c2.3,12.162-7.806,22.639-15.481,32.348" transform="translate(-376.712 325.545)"/>
    </clipPath>
    <clipPath id="clip-path-6">
      <path id="path20" d="M319.029-284.763a79.127,79.127,0,0,0-6.54,9.906c-18.338,32.86-11.211,75.264,6.784,106.79-.761-18.33,1.476-37.852,8.543-54.873,4.287-10.326,7.153-20.8,10.892-31.3a63.431,63.431,0,0,0-7.546-56.507c1.928,9.708-6.07,18.163-12.133,25.986" transform="translate(-301.77 310.748)"/>
    </clipPath>
    <clipPath id="clip-path-7">
      <path id="path23" d="M273.481-229.661c3.881,16.827,6.243,34.12,11.411,50.607,1.131,3.61,2.051,7.611,4.8,10.3-3.987-15.266-5.723-31.164-3.961-46.835.806-7.167,2.991-14.323,7.34-20.076,2.8-3.706,6.456-6.783,8.713-10.842s2.676-9.748-.746-12.891c.536.494,4.46-2.148,4.987-2.522a20,20,0,0,0,4.269-4.109,18.308,18.308,0,0,0,4.019-11.8c-.039-1.458-.781-3.366-2.223-3.143a40.353,40.353,0,0,0,5.56-6.325,13.2,13.2,0,0,0,2.359-8.924c-.4-3.179-1.514-3.806-4.488-4.666a28.306,28.306,0,0,0,.965-5.08,8.165,8.165,0,0,0-1.069-4.912,5.429,5.429,0,0,0-4.579-2.383,5.427,5.427,0,0,0-4.448,2.618c-.5-1.855-2.655-2.9-4.565-2.679a8.775,8.775,0,0,0-4.94,2.76c-3.73,3.675-4.533,8.325-6.048,13.168a6.93,6.93,0,0,0-7.205,2.132,13.374,13.374,0,0,0-3.016,7.247c-.6,4.2-.159,8.477.288,12.7a4.989,4.989,0,0,0-5.9.84,9.345,9.345,0,0,0-2.562,5.748c-.737,5.88,1.628,11.688,4.341,16.958a4.394,4.394,0,0,0-4.929,1.35c-4.322,4.972-.064,13.606,1.219,19,.14.584.276,1.171.412,1.757" transform="translate(-269.958 313.35)"/>
    </clipPath>
  </defs>
  <g id="g1" transform="translate(-30.608 -0.009)">
    <g id="group-R5" transform="translate(30.608 0.009)">
      <path id="path2" d="M162.076-154.351a336.64,336.64,0,0,1-59.49,3.427c-11.631-.364-23.445-1.377-34.268-5.653a60.844,60.844,0,0,1-37.306-48.768,96.261,96.261,0,0,1,.457-21.182c.808-7.35,1.969-14.762,4.921-21.541,7.6-17.457,24.952-27.586,36.011-42.492,12.585-16.962,14.557-35.294,12.824-56.274-1.9-23-7.139-46.361-2.066-68.876,2.253-10,6.732-19.815,14.431-26.585,20.058-17.643,53.2-8.918,75.49-23.643,26.255-17.349,28.438-61.015,57.814-72.3,14.138-5.433,30.1-1.068,43.983,4.993s27.406,13.9,42.455,15.616c17.381,1.983,34.482-4.445,51.779-7.059,18.633-2.816,38.253-1.05,55.23,7.125s31.026,23.144,36.087,41.3c2.5,8.947,2.824,18.432,5.835,27.219,4.392,12.817,14.008,22.68,24.573,30.739,10.618,8.1,22.635,12.049,33.358,19.545a89.956,89.956,0,0,1,37.517,65.449c.863,10.688-.167,21.491,1.154,32.135,1.75,14.1,7.6,27.455,15.277,39.41,5.05,7.864,10.892,15.187,16.177,22.9,8.462,12.348,15.626,26.146,16.9,41.063s-4.384,31.11-16.961,39.23c-11.882,7.672-27.2,6.928-41.2,4.9-17.991-2.61-35.711-6.878-53.755-9.146-17.783-2.235-35.735-1.621-53.562-.876-39.575,1.657-79.181,2.741-118.793,2.741-28.423.093-56.839-.662-85.261-.779-12.083-.05-24.157.44-36.232.808-11.188.34-20.766,2.656-31.754,4.668q-5.8,1.061-11.626,1.919" transform="translate(-30.608 540.711)" fill="#e2f5f3"/>
      <path id="path3" d="M279.3-255.324c-2.7,18.964-3.683,38.3-7.84,57.012-.91,4.1-1.551,8.6-4.331,11.835,2.968-17.248,3.388-34.985-.038-52.14-1.565-7.845-4.656-15.549-10-21.5-3.446-3.83-7.777-6.888-10.653-11.163s-3.877-10.522-.393-14.316c-.546.593-5.133-1.955-5.751-2.319a22.263,22.263,0,0,1-5.107-4.14,20.315,20.315,0,0,1-5.552-12.658c-.094-1.615.545-3.794,2.16-3.684a44.777,44.777,0,0,1-6.741-6.465,14.644,14.644,0,0,1-3.45-9.642c.146-3.552,1.316-4.35,4.521-5.581a31.4,31.4,0,0,1-1.546-5.524,9.072,9.072,0,0,1,.718-5.531,6.026,6.026,0,0,1,4.837-3.066,6.021,6.021,0,0,1,5.164,2.475c.381-2.1,2.66-3.455,4.791-3.393a9.733,9.733,0,0,1,5.721,2.586c4.468,3.708,5.794,8.773,7.926,13.984,2.671-1.247,6-.317,8.166,1.676a14.856,14.856,0,0,1,4.017,7.724c1.065,4.589.975,9.356.879,14.064,1.873-1.46,4.733-1.094,6.6.372a10.363,10.363,0,0,1,3.374,6.112c1.369,6.43-.7,13.072-3.2,19.153a4.875,4.875,0,0,1,5.574,1.027c5.245,5.088,1.353,15.034.444,21.116q-.147.991-.289,1.983" transform="translate(-39.309 531.801)" fill="#2a9255"/>
      <g id="Groupe_1" data-name="Groupe 1" transform="translate(182.283 186.678)" clip-path="url(#clip-path)">
        <path id="path4" d="M267.477-187.208c3.452-17.766,5.131-33.191,5.131-47.095,0-26.847-6.275-48.019-18.061-69.3A679.088,679.088,0,0,0,216.5-363.846l-1.032.744s.313.435.9,1.261a681.961,681.961,0,0,1,37.07,58.857c11.7,21.138,17.9,42.03,17.9,68.68,0,13.8-1.667,29.145-5.108,46.852l1.25.243" transform="translate(-221.312 345.976)" fill="#6dc638"/>
      </g>
      <path id="path6" d="M225.866-286.24a88.2,88.2,0,0,1,11.351,6.787c34.29,24.139,47.618,70.164,44.776,110.515-8.091-18.773-19.768-37.3-35.087-50.976-9.292-8.3-17.229-17.429-26.058-26.171a70.687,70.687,0,0,1-19.721-60.389c2.754,10.679,14.87,15.308,24.739,20.235" transform="translate(-38.339 530.04)" fill="#47c09d"/>
      <g id="Groupe_2" data-name="Groupe 2" transform="translate(161.954 223.565)" clip-path="url(#clip-path-2)">
        <path id="path7" d="M282.435-167.593c-6.426-28.7-21.141-54.584-38.188-78.154-7.922-10.952-17.9-21.626-26.608-32.953s-16.15-23.29-19.058-36.79l-1.243.269c2.973,13.788,10.534,25.908,19.293,37.3S235.363-255.863,243.216-245c16.994,23.5,31.608,49.231,37.977,77.686l1.242-.277" transform="translate(-200.158 306.886)" fill="#68cbab"/>
      </g>
      <path id="path9" d="M366.4-247.247c7.95,14.553,14.617,29.932,23.668,43.838,1.983,3.044,3.87,6.505,7.106,8.281-7.644-13.083-13.371-27.335-15.8-42.283-1.112-6.835-.947-14.02,1.584-20.465,1.63-4.152,4.212-7.946,5.245-12.284s-.051-9.708-4.029-11.727c.624.316,3.567-3.143,3.959-3.626a19.308,19.308,0,0,0,2.882-4.906,17.6,17.6,0,0,0,.658-11.949c-.415-1.339-1.595-2.91-2.871-2.331a38.6,38.6,0,0,0,3.5-7.288,12.676,12.676,0,0,0-.131-8.863c-1.2-2.835-2.387-3.127-5.36-3.152a27.244,27.244,0,0,0-.425-4.949,7.846,7.846,0,0,0-2.26-4.264,5.214,5.214,0,0,0-4.852-1.017,5.216,5.216,0,0,0-3.436,3.575,4.031,4.031,0,0,0-4.913-1.3,8.426,8.426,0,0,0-3.853,3.833c-2.5,4.364-2.034,8.874-2.18,13.745a6.656,6.656,0,0,0-6.111,3.838,12.854,12.854,0,0,0-.91,7.483,49.339,49.339,0,0,0,3.557,11.668,4.791,4.791,0,0,0-5.238,2.307,8.955,8.955,0,0,0-.878,5.978c.841,5.63,4.534,10.387,8.408,14.556a4.22,4.22,0,0,0-4.207,2.527c-2.708,5.716,3.468,12.6,6.052,17.252q.42.758.836,1.519" transform="translate(-45.394 531.315)" fill="#6dc638"/>
      <g id="Groupe_3" data-name="Groupe 3" transform="translate(309.773 196.864)" clip-path="url(#clip-path-3)">
        <path id="path10" d="M398.439-196.373c-18.864-30.753-26.215-54.114-26.217-77.981a132.361,132.361,0,0,1,1.518-19.507c2.334-15.731,5.466-30.8,8.013-41.933,1.274-5.567,2.4-10.15,3.211-13.34.4-1.6.73-2.843.953-3.69s.346-1.293.346-1.294l-1.228-.336a588.275,588.275,0,0,0-12.555,60.407,133.668,133.668,0,0,0-1.531,19.694c0,24.144,7.469,47.79,26.4,78.647l1.085-.666h0" transform="translate(-355.887 335.362)" fill="#2a9255"/>
      </g>
      <path id="path12" d="M328.159-321.767a96.433,96.433,0,0,1,11.724,8.506c35.062,29.665,45.13,81.169,38.111,124.912-7-21.267-17.942-42.61-33.324-59.019-9.332-9.955-17.1-20.687-25.885-31.082a77.415,77.415,0,0,1-15.646-67.794c1.966,11.917,14.735,18.143,25.021,24.478" transform="translate(-42.922 531.852)" fill="#68cbab"/>
      <g id="Groupe_4" data-name="Groupe 4" transform="translate(257.981 185.607)" clip-path="url(#clip-path-4)">
        <path id="path13" d="M378.35-186.831c-4.221-31.923-17.755-61.578-34.06-88.944-7.574-12.713-17.42-25.325-25.824-38.53s-15.364-26.987-17.225-42.01l-1.262.157c1.9,15.318,8.968,29.265,17.414,42.537s18.29,25.883,25.8,38.5c16.259,27.286,29.707,56.788,33.892,88.459l1.261-.167" transform="translate(-300.861 346.703)" fill="#47c09d"/>
      </g>
      <path id="path15" d="M398.938-293.2a98.774,98.774,0,0,0-8.295,12.307c-23.323,40.868-14.918,93.973,7.205,133.608-.733-22.928,2.3-47.314,11.339-68.511,5.483-12.857,9.192-25.917,13.992-39.008a79.317,79.317,0,0,0-8.76-70.745c2.3,12.162-7.806,22.639-15.481,32.348" transform="translate(-46.376 530.909)" fill="#47c09d"/>
      <g id="Groupe_5" data-name="Groupe 5" transform="translate(330.336 205.364)" clip-path="url(#clip-path-5)">
        <path id="path16" d="M400.237-146a189.345,189.345,0,0,1-4.283-41.149c0-18.719,2.335-37.5,5.822-55.9,4.543-24.013,15.017-50.139,15.026-75.613a77.905,77.905,0,0,0-1.9-17.556l-1.241.286a76.587,76.587,0,0,1,1.867,17.27c.009,25.13-10.412,51.194-15,75.376-3.5,18.455-5.845,37.313-5.845,56.139a190.616,190.616,0,0,0,4.314,41.424l1.242-.275h0" transform="translate(-377.531 326.032)" fill="#68cbab"/>
      </g>
      <path id="path18" d="M319.029-284.763a79.127,79.127,0,0,0-6.54,9.906c-18.338,32.86-11.211,75.264,6.784,106.79-.761-18.33,1.476-37.852,8.543-54.873,4.287-10.326,7.153-20.8,10.892-31.3a63.431,63.431,0,0,0-7.546-56.507c1.928,9.708-6.07,18.163-12.133,25.986" transform="translate(-42.962 530.235)" fill="#47c09d"/>
      <g id="Groupe_6" data-name="Groupe 6" transform="translate(258.808 219.486)" clip-path="url(#clip-path-6)">
        <path id="path19" d="M321.33-167.086a152.562,152.562,0,0,1-3.746-34.586,243.966,243.966,0,0,1,4.235-42.987c3.405-19,11.435-39.71,11.444-59.889a62.9,62.9,0,0,0-1.661-14.769l-1.237.3a61.613,61.613,0,0,1,1.625,14.472c.008,19.847-7.973,40.5-11.424,59.664a245.221,245.221,0,0,0-4.255,43.212A153.812,153.812,0,0,0,320.09-166.8l1.239-.288" transform="translate(-302.432 311.139)" fill="#68cbab"/>
      </g>
      <path id="path21" d="M273.481-229.661c3.881,16.827,6.243,34.12,11.411,50.607,1.131,3.61,2.051,7.611,4.8,10.3-3.987-15.266-5.723-31.164-3.961-46.835.806-7.167,2.991-14.323,7.34-20.076,2.8-3.706,6.457-6.783,8.712-10.842s2.677-9.748-.743-12.891c.534.494,4.459-2.148,4.986-2.522a20.025,20.025,0,0,0,4.269-4.109,18.315,18.315,0,0,0,4.019-11.8c-.039-1.458-.781-3.366-2.223-3.143a40.353,40.353,0,0,0,5.56-6.325,13.2,13.2,0,0,0,2.359-8.924c-.4-3.179-1.514-3.806-4.488-4.666a28.306,28.306,0,0,0,.965-5.08,8.165,8.165,0,0,0-1.069-4.912,5.429,5.429,0,0,0-4.579-2.383,5.427,5.427,0,0,0-4.448,2.618c-.5-1.855-2.655-2.9-4.565-2.679a8.775,8.775,0,0,0-4.94,2.76c-3.73,3.674-4.533,8.325-6.048,13.168a6.93,6.93,0,0,0-7.205,2.132,13.374,13.374,0,0,0-3.016,7.247c-.6,4.2-.159,8.477.288,12.7a4.989,4.989,0,0,0-5.9.84,9.345,9.345,0,0,0-2.562,5.748c-.737,5.88,1.628,11.688,4.341,16.958a4.392,4.392,0,0,0-4.929,1.351c-4.322,4.971-.064,13.6,1.219,19,.14.584.276,1.171.412,1.757" transform="translate(-41.512 530.353)" fill="#6dc638"/>
      <g id="Groupe_7" data-name="Groupe 7" transform="translate(228.445 217.003)" clip-path="url(#clip-path-7)">
        <path id="path22" d="M290.8-169.78c-5.928-20.844-8.7-38.158-8.7-53.664,0-18.591,3.979-34.6,11.336-51.045,6.762-15.117,14.138-29.346,19.821-39.794,2.842-5.224,5.261-9.5,6.968-12.474.854-1.486,1.531-2.646,1.993-3.432s.71-1.2.711-1.2l-1.092-.654a612.3,612.3,0,0,0-29.564,57.036c-7.414,16.57-11.448,32.789-11.447,51.564,0,15.66,2.8,33.09,8.749,54.011l1.224-.347" transform="translate(-270.453 314.202)" fill="#2a9255"/>
      </g>
      <path id="path25" d="M414.042-435.41q-1.577.191-3.153.36l.135,1.265q1.586-.17,3.17-.361l-.151-1.264" transform="translate(-47.933 535.914)" fill="#47c09d"/>
      <path id="path26" d="M392.455-436.586q-3.167.256-6.341.429l.069,1.27q3.19-.174,6.376-.431Zm-12.694.692q-3.176.088-6.355.1l0,1.273q3.2-.006,6.389-.1Zm-12.712.027q-3.178-.076-6.353-.237l-.064,1.271q3.19.16,6.386.238Zm-12.7-.638q-3.169-.242-6.331-.569l-.13,1.266q3.178.328,6.364.571Zm-12.645-1.3q-1.493-.195-2.985-.406-1.649-.235-3.3-.5l-.2,1.256q1.666.269,3.326.5,1.5.214,3,.409Zm-12.531-2.046q-3.108-.641-6.168-1.456l-.33,1.228c2.063.555,4.146,1.041,6.239,1.475Zm-12.215-3.314c-2-.7-3.956-1.476-5.861-2.347l-.528,1.157c1.943.888,3.939,1.681,5.97,2.391Zm-11.442-5.27A48.805,48.805,0,0,1,300.341-452l-.789,1a49.923,49.923,0,0,0,5.313,3.655Zm-9.674-7.842a21.452,21.452,0,0,1-3.046-5.363l-1.185.464a22.731,22.731,0,0,0,3.23,5.684Zm-4.4-11.358c-.015-.3-.024-.589-.024-.882a14.274,14.274,0,0,1,.093-1.642,12.53,12.53,0,0,1,.91-3.426l-1.172-.5a13.832,13.832,0,0,0-1,3.774,15.721,15.721,0,0,0-.1,1.788q0,.475.027.952Zm4.524-10.818a10.521,10.521,0,0,1,5.383-2.484l-.171-1.26a11.767,11.767,0,0,0-6.037,2.774Zm11.461-2.106a18.613,18.613,0,0,1,5.6,2.489l.692-1.068a19.865,19.865,0,0,0-5.985-2.655Zm10.331,6.505a36.235,36.235,0,0,1,3.846,4.935l1.065-.7a37.562,37.562,0,0,0-3.982-5.109Zm6.915,10.422a52.112,52.112,0,0,1,2.359,5.839l1.206-.4a53.389,53.389,0,0,0-2.417-5.981Zm3.969,11.92a58.3,58.3,0,0,1,.874,6.239l1.267-.107a59.2,59.2,0,0,0-.893-6.378Zm1.059,12.536a48.233,48.233,0,0,1-.574,6.261l1.257.2a49.822,49.822,0,0,0,.589-6.426Zm-2.034,12.354a30.984,30.984,0,0,1-2.513,5.7l1.1.632a32.288,32.288,0,0,0,2.618-5.939Zm-6.211,10.682a23.241,23.241,0,0,1-4.837,3.851l.654,1.092a24.539,24.539,0,0,0,5.1-4.061ZM310.9-410.127a18.51,18.51,0,0,1-3.391.313,18.022,18.022,0,0,1-2.74-.207l-.192,1.259a19.421,19.421,0,0,0,2.932.221,19.806,19.806,0,0,0,3.624-.335Zm-11.87-1.919a12.183,12.183,0,0,1-4.249-4.23l-1.1.648a13.456,13.456,0,0,0,4.687,4.672Zm-5.415-9.847a6.154,6.154,0,0,1,3.807-4.053l-.477-1.178a7.417,7.417,0,0,0-4.566,4.926l1.234.305Zm9.506-3.959a10.12,10.12,0,0,1,4.376,3.967l1.079-.672a11.39,11.39,0,0,0-4.939-4.458Zm6.279,9.7a19.221,19.221,0,0,1,.113,2.12,26.8,26.8,0,0,1-.336,4.063l1.259.193a28.187,28.187,0,0,0,.35-4.257,20.375,20.375,0,0,0-.122-2.261Zm-1.616,12.308a32.522,32.522,0,0,1-2.325,5.791l1.126.593A33.7,33.7,0,0,0,309-403.481Zm-5.879,10.86a25.641,25.641,0,0,1-4.728,4.015l.7,1.06a26.842,26.842,0,0,0,4.963-4.213Zm-10.258,6.879a33.7,33.7,0,0,1-6,1.734l.241,1.25a35.02,35.02,0,0,0,6.228-1.8Zm-12.223,2.371c-.173,0-.345,0-.517,0q-1.147,0-2.284-.074a19.349,19.349,0,0,1-3.362-.51l-.3,1.236a20.58,20.58,0,0,0,3.583.545q1.178.076,2.367.076.267,0,.535,0Zm-11.8-3.011a30.694,30.694,0,0,1-4.854-3.908l-.883.916a32.028,32.028,0,0,0,5.057,4.068Zm-9.239-8.48c-.943-1.021-1.9-2.055-2.9-3.076q-.775-.794-1.57-1.532l-.867.933q.773.718,1.526,1.489c.984,1.005,1.934,2.031,2.877,3.05Zm-9.523-8.639a39.6,39.6,0,0,0-5.634-3.179l-.532,1.156a38.325,38.325,0,0,1,5.452,3.077Zm-11.708-5.4a44.147,44.147,0,0,0-6.335-1.262l-.159,1.262a43.048,43.048,0,0,1,6.153,1.225Zm-12.77-1.658h-.057q-1.647,0-3.329.094c-1.026.057-2.044.154-3.054.284l.163,1.262q1.472-.191,2.961-.276,1.649-.092,3.259-.092h.056Zm-12.768,1.6c-2.072.519-4.121,1.135-6.158,1.794l.391,1.21c2.021-.653,4.043-1.26,6.078-1.77Zm-12.208,3.838c-2.011.691-4.019,1.374-6.032,2l.378,1.215c2.035-.632,4.054-1.321,6.068-2.012Zm-12.131,3.641a50.4,50.4,0,0,1-6.216.962l.113,1.267a51.82,51.82,0,0,0,6.373-.985ZM174.8-400.817a27.815,27.815,0,0,1-6.113-1.133l-.377,1.217a29.169,29.169,0,0,0,6.393,1.185Zm-11.7-3.751q-.592-.391-1.161-.827a13.265,13.265,0,0,1-3.158-3.416l-1.08.674a14.542,14.542,0,0,0,3.464,3.75q.605.464,1.233.879Zm-5.394-9.818a6.954,6.954,0,0,1,3.772-4.229l-.565-1.139a8.209,8.209,0,0,0-4.434,5.029Zm9.614-5.088a20.1,20.1,0,0,1,5.858,1.883l.543-1.15a21.354,21.354,0,0,0-6.233-1.994Zm11.319,4.959a17.25,17.25,0,0,1,4.07,3.725c.122.159.239.322.353.485l1.046-.724q-.187-.271-.387-.532a18.559,18.559,0,0,0-4.364-4.006ZM185.4-404.7a22.46,22.46,0,0,1,.453,4.621q0,.777-.045,1.555l1.271.07c.029-.541.046-1.083.046-1.625a23.7,23.7,0,0,0-.481-4.883Zm-.5,12.371a48.436,48.436,0,0,1-1.79,6.024l1.194.44a49.641,49.641,0,0,0,1.838-6.183Zm-4.324,11.784a57.872,57.872,0,0,1-3.181,5.439l1.063.7a58.878,58.878,0,0,0,3.251-5.559Zm-6.913,10.525q-1.981,2.445-4.194,4.72l.914.887q2.243-2.314,4.269-4.805Zm-8.779,9.072q-2.38,2.084-4.915,3.981l.764,1.018c1.709-1.281,3.377-2.63,4.99-4.042Zm-10.113,7.593a39.293,39.293,0,0,0-5.231,3.81l.86.938a38.271,38.271,0,0,1,5.065-3.682Zm-8.916,9.314a12.942,12.942,0,0,0-.608,3.995,15.957,15.957,0,0,0,.221,2.607l1.255-.209a14.652,14.652,0,0,1-.2-2.4,11.617,11.617,0,0,1,.547-3.6Zm1.732,12.8a25.506,25.506,0,0,0,2.326,3.689c.433.573.883,1.131,1.345,1.677l.971-.821c-.448-.532-.883-1.072-1.3-1.624a24.46,24.46,0,0,1-2.21-3.506Zm8.046,10.065c1.493,1.519,2.982,3.024,4.36,4.6l.957-.839c-1.413-1.614-2.919-3.133-4.409-4.651Zm8.074,9.623a26.823,26.823,0,0,1,2.567,5.656l1.214-.384a28.086,28.086,0,0,0-2.689-5.925Zm3.683,11.752q.038.693.038,1.385a27.177,27.177,0,0,1-.439,4.812l1.253.225a28.553,28.553,0,0,0,.458-5.037q0-.725-.041-1.455Zm-2.1,12.2a43.686,43.686,0,0,1-2.677,5.676l1.111.621a45.14,45.14,0,0,0,2.755-5.842Zm-6.064,10.989c-1.093,1.532-2.259,3.021-3.469,4.462q-.212.25-.429.5l.953.842c.153-.172.3-.345.449-.521,1.231-1.462,2.417-2.979,3.531-4.539Zm-8.53,9.094a26.292,26.292,0,0,1-5.466,2.945l.466,1.185a27.522,27.522,0,0,0,5.73-3.088l-.73-1.041" transform="translate(-35.83 538.046)" fill="#47c09d"/>
      <path id="path27" d="M138.449-252.552a22.331,22.331,0,0,1-2.261.116q-.414,0-.83-.017l-.047,1.273c.293.01.584.017.877.017a23.413,23.413,0,0,0,2.391-.123l-.13-1.265" transform="translate(-35.378 527.583)" fill="#47c09d"/>
      <path id="path28" d="M110.986-275.731l.306.331,5.92-8.648c2.258-3.3,4.635-6.709,8.1-8.7a2.388,2.388,0,0,1,2.191-.359c2.473,1.261-.246,6.648-1.012,8.135-2.94,5.723-5.753,11.954-9.383,17.267-3.5,5.142-9.29.842-12.378-2.247-4.366-4.366-11.339-9.025-12.621-15.492-.337-1.7.606-3.9,2.34-3.889a3.78,3.78,0,0,1,1.918.738c5.382,3.389,10.293,8.186,14.614,12.863" transform="translate(-33.407 529.438)" fill="#f9a886"/>
      <path id="path29" d="M93.777-295.492c2.882.863,5.694,3.688,7.07,5.627.539.758,5.782,6.107,5.815,6.07a62.346,62.346,0,0,1-9.154,8.679,1.075,1.075,0,0,1-.634.294,1.031,1.031,0,0,1-.552-.234c-2.418-1.677-4.043-4.309-5.886-6.514-2.756-3.3-5.33-11.062-.392-13.677a4.812,4.812,0,0,1,3.733-.244" transform="translate(-33.189 529.552)" fill="#eca921"/>
      <path id="path30" d="M119.295-312.167l17.12-10.784,14.8,25.236-14.529,11.564-17.392-26.016" transform="translate(-34.648 530.791)" fill="#fff"/>
      <path id="path31" d="M129.506-288.87a5.741,5.741,0,0,0-.8.78c-.739.822-2.459,3.217-3.8,1.956-.357-.336-.469-.963-.839-1.351a5.239,5.239,0,0,0-1.653-1.136l-.251-.2a.393.393,0,0,1,.113-.335c.749-1.012,1.595-1.947,2.258-3.02a4.34,4.34,0,0,0,.455-2.554c.018-2.942,1.12-5.812,1.9-8.624.182-.654.595-2.288,1.571-2.042a1.007,1.007,0,0,1,.577.447,2,2,0,0,1,.254.7c.35,1.765-.893,3.265-1.038,4.966a4.8,4.8,0,0,0,1.277,2.992,31.308,31.308,0,0,0,3.145,4.1.723.723,0,0,1,.206.375.723.723,0,0,1-.205.481,7.446,7.446,0,0,1-1.311,1.587c-.547.4-1.306.464-1.867.886" transform="translate(-34.779 529.992)" fill="#f9a886"/>
      <path id="path32" d="M103.754-157.186a2.8,2.8,0,0,1,.981.19.885.885,0,0,1,.551.771.935.935,0,0,1-.209.518c-.6.792-1.757.836-2.751.811L91.3-155.18a1.223,1.223,0,0,1-.486-.078,1.025,1.025,0,0,1-.4-.368,4.72,4.72,0,0,1-.336-3.821,13,13,0,0,0,.723-3.871c-.03-.466-.1-1.014.248-1.322a1.269,1.269,0,0,1,.582-.237,14.873,14.873,0,0,1,3.56-.328,22.722,22.722,0,0,0,.044,4.131c1.074,3.256,5.642,3.669,8.517,3.889" transform="translate(-33.307 523.604)" fill="#1e1a38"/>
      <path id="path33" d="M87.253-157.186a2.805,2.805,0,0,1,.981.19.886.886,0,0,1,.551.771.932.932,0,0,1-.21.518c-.6.792-1.756.836-2.75.811L74.8-155.18a1.227,1.227,0,0,1-.486-.078,1.024,1.024,0,0,1-.4-.368,4.719,4.719,0,0,1-.336-3.821,12.992,12.992,0,0,0,.724-3.871c-.03-.466-.1-1.014.248-1.322a1.269,1.269,0,0,1,.582-.237,14.87,14.87,0,0,1,3.56-.328,22.636,22.636,0,0,0,.044,4.131c1.074,3.256,5.64,3.669,8.516,3.889" transform="translate(-32.555 523.604)" fill="#1e1a38"/>
      <path id="path34" d="M84.752-250.065a20.937,20.937,0,0,0-6.488,1.606c-5.432,2.319-1.5,14.157-.332,18.391l4.444,16.114a137.544,137.544,0,0,1,4.3,26.848c.122,1.7,1.193,20.307,1.346,20.31l7.42.1c.656.009,1.48-9.887,1.553-10.856.276-3.678.327-7.359.516-11.045,1.085-16.833,0-34.134-.686-51-.113-2.795-.548-5.7-2.32-7.973-.725-.932-2.714-1.141-3.765-1.549a11.413,11.413,0,0,0-4.645-1.009q-.673.011-1.345.067" transform="translate(-32.651 527.473)" fill="#3c6b8d"/>
      <path id="path35" d="M68.7-249.824a40.072,40.072,0,0,0-.535,4.913c-1.022,15.18.525,30.384,1.564,45.519.739,10.768,1.581,21.53,2.2,32.308l7.42.1c.656.009,1.48-9.887,1.553-10.856.276-3.678.326-7.359.516-11.045,0-5.865.612-11.8.906-17.654.348-6.946.753-13.952,1.584-20.848.5-4.129,1.109-8.244,1.579-12.377.431-3.79,1.469-8.277-.238-11.859a8.331,8.331,0,0,0-4.559-4.177,15.544,15.544,0,0,0-5.749-.658,9.2,9.2,0,0,0-3.077.426c-2.425.915-2.73,3.987-3.159,6.21" transform="translate(-32.304 527.762)" fill="#3693a5"/>
      <path id="path36" d="M94.459-291.06c1.186,3.888.971,8.507,1.067,12.26q.38,15.013.761,30.022a3.123,3.123,0,0,1-.29,1.729,2.969,2.969,0,0,1-1.8,1.082c-5.592,1.631-11.529,1.472-17.353,1.3a22.09,22.09,0,0,1-7.629-1.131,2.4,2.4,0,0,1-1.173-.818,2.661,2.661,0,0,1-.268-1.546,244.5,244.5,0,0,1,2.007-24.71c.854-6.452.526-13.459,3.445-19.446,2.816-5.776,9.508-7.545,15.288-5.384a9.075,9.075,0,0,1,4.352,3.226,12.412,12.412,0,0,1,1.6,3.416" transform="translate(-32.301 529.681)" fill="#fadb2f"/>
      <path id="path37" d="M86.809-295.751c-1.214.845-3.129.719-4.449.461-2.368-.463-2.408-3.162-2.112-5.067.235-1.513,1.019-5.828,2.873-6.082a4.551,4.551,0,0,1,4.848,2.736,7.777,7.777,0,0,1,.272,2.781c-.034,1.453.035,3.816-1.119,4.918l-.312.253" transform="translate(-32.864 530.04)" fill="#d89275"/>
      <path id="path38" d="M80.339-311.991c.43,1.648.03,3.18-.893,3.419s-2.02-.9-2.45-2.549-.03-3.179.894-3.419,2.02.9,2.45,2.549" transform="translate(-32.713 530.409)" fill="#f9a886"/>
      <path id="path39" d="M56.484-272.712c-.808,1.6-1.563,3.223-2.25,4.879a2.524,2.524,0,0,0-.305,2.021,20.455,20.455,0,0,0,.994,2.59A44.608,44.608,0,0,0,60.7-254.17c1.722,2.208,3.3,4.521,4.909,6.808,1.507,2.138,3.553,4.151,4.191,6.737a6.976,6.976,0,0,0,4.811-1.477l.067-.061c.081-.122-.09-.251-.224-.31a4.231,4.231,0,0,1-2.043-2.6c-.618-1.409-1.273-2.8-1.952-4.18-1.329-2.7-2.751-5.36-4.183-8.011q-1.866-3.455-3.705-6.921c-.531-1-1.023-1.55-.615-2.721a10.637,10.637,0,0,1,1.458-2.418c1.751-2.536,3.494-5.08,5.254-7.61a9.414,9.414,0,0,0,1.777-3,4.159,4.159,0,0,0-.4-3.459c-3.849-5.794-9.949,3.53-13.565,10.686" transform="translate(-31.666 529.071)" fill="#f9a886"/>
      <path id="path40" d="M80.762-290.236c-.194,3-2.314,6.377-3.893,8.155-.618.7-4.652,7.008-4.608,7.03a62.484,62.484,0,0,1-10.515-6.966,1.078,1.078,0,0,1-.428-.554,1.043,1.043,0,0,1,.1-.59c1.09-2.733,3.289-4.907,5.023-7.2,2.591-3.426,9.582-7.681,13.24-3.457a4.814,4.814,0,0,1,1.078,3.582" transform="translate(-32.007 529.544)" fill="#fadb2f"/>
      <path id="path41" d="M74.519-325.677a6.181,6.181,0,0,1-.2,1.036c-.446,1.527-1.644,2.614-2.546,3.87a5.492,5.492,0,0,0-.863,3.751,14.951,14.951,0,0,0,3.55,7.569,6.84,6.84,0,0,0,1.286,1.364,10.162,10.162,0,0,0,1.991.862,26.854,26.854,0,0,0,5.621,1.5c.944.146,1.9.233,2.849.294a5.806,5.806,0,0,0,2.539-.747,10.519,10.519,0,0,0,2.582-1.531,15.087,15.087,0,0,0,2.166-2.371,6.214,6.214,0,0,0,1.244-2.139c.256-.958.06-2.02.465-2.924a9.495,9.495,0,0,1,1.1-1.528c1.216-1.7-.283-3.9.724-5.678.626-1.1,1.817-1.746,2.367-2.9a4.726,4.726,0,0,0,.169-3.552,7.918,7.918,0,0,0-4.129-4.151c-2.049-1.017-4.684-1.452-6.512-.076-.388.293-.719.653-1.089.968-2.965,2.523-6.53.221-9.852,1.287a4.758,4.758,0,0,0-3.1,2.811,10.832,10.832,0,0,0-.359,2.279" transform="translate(-32.443 531.289)" fill="#1e1a38"/>
      <path id="path42" d="M77.087-311.789a12.633,12.633,0,0,0,5.038,9.108c2.248,1.6,5.656,2.539,8.221,1.141,3.444-1.875,4.36-6.794,4.45-10.357.106-4.212-1.316-9-5.3-11.075-2.8-1.457-7.287-1.811-9.472.831a14.479,14.479,0,0,0-2.937,10.352" transform="translate(-32.723 530.843)" fill="#f9a886"/>
      <path id="path43" d="M90.479-323.2a5.564,5.564,0,0,0-2.489.786c-1.508.916-2.487,2.493-3.859,3.6a17.378,17.378,0,0,1-4.415,2.273,2.027,2.027,0,0,0-.792.484,1.675,1.675,0,0,0-.321,1.127c.025,2.261,1.439,4.333.166,6.53a1.742,1.742,0,0,1-.513.594c-1.338.9-2.374-1.577-2.788-2.482a11.757,11.757,0,0,1-1.034-4.308c-.14-2.973.629-6.846,3.1-8.72a13.1,13.1,0,0,1,8.379-2.819,11.031,11.031,0,0,1,3.032.571,3.66,3.66,0,0,1,1.4.851,3.587,3.587,0,0,1,.715.72l.3.8a5.475,5.475,0,0,0-.878-.01" transform="translate(-32.604 530.936)" fill="#1e1a38"/>
      <path id="path44" d="M85.62-306.495a26.947,26.947,0,0,0,3.827-.186,15,15,0,0,0,3.761-1.173s-.189,1.364-.239,1.505a5.017,5.017,0,0,1-.831,1.5,4.11,4.11,0,0,1-5.209.68,3.23,3.23,0,0,1-.971-1.1c-.045-.083-.485-1.227-.338-1.232" transform="translate(-33.113 530.103)" fill="#fff"/>
      <path id="path45" d="M90.821-316.439a2.5,2.5,0,0,1,2.973.382c.521.634,1.416-.271.9-.9a3.65,3.65,0,0,0-4.211-.709c-.749.3-.421,1.536.339,1.227" transform="translate(-33.316 530.566)" fill="#1e1a38"/>
      <path id="path46" d="M78.6-308.526c.731,1.424.612,2.945-.266,3.4s-2.184-.339-2.915-1.764-.612-2.943.266-3.4,2.183.338,2.915,1.762" transform="translate(-32.628 530.22)" fill="#f9a886"/>
      <path id="path47" d="M85.139-312.267c.15.911-.12,1.714-.6,1.794s-1-.6-1.146-1.508.121-1.715.6-1.794,1,.6,1.146,1.508" transform="translate(-33.011 530.373)" fill="#1e1a38"/>
      <path id="path48" d="M93.241-313.48c.027.925-.348,1.686-.836,1.7s-.909-.722-.937-1.645.348-1.685.837-1.7.909.724.936,1.647" transform="translate(-33.381 530.434)" fill="#1e1a38"/>
      <path id="path49" d="M84.835-316.693a3.918,3.918,0,0,0-4.124,2.292c-.339.738.758,1.386,1.1.641a2.675,2.675,0,0,1,2.686-1.708c.8.125,1.147-1.1.338-1.225" transform="translate(-32.888 530.508)" fill="#1e1a38"/>
      <path id="path50" d="M415.792-198.889H595.507c11.87-13.016,13.154-29.677,0-39.481H415.792v4.726h5.693v29.471h-5.693v5.284" transform="translate(-48.156 526.937)" fill="#3693a5"/>
      <path id="path51" d="M421.758-203.947H592.412c8.219-6.529,8.46-23.491,0-29.471H421.757v29.471" transform="translate(-48.428 526.712)" fill="#fff"/>
      <path id="path52" d="M592.87-203.947h-.122c3.706-7.869,2.419-19.293-4.208-23.979H435.047c-1.007-1.681-2.1-3.529-3.25-5.492H592.87c4.2,2.966,6.252,8.636,6.255,14.393,0,5.849-2.112,11.788-6.255,15.079" transform="translate(-48.885 526.712)" fill="#d4d3d1"/>
      <path id="path53" d="M587.344-221.626q-16.118.737-32.238.99c-10.747.2-21.492.257-32.239.281-10.745-.022-21.492-.075-32.238-.279q-16.12-.248-32.239-.993,16.12-.741,32.239-.993c10.745-.2,21.492-.257,32.238-.28,10.747.027,21.492.08,32.239.284q16.118.252,32.238.989" transform="translate(-50.097 526.232)" fill="#e1dcda"/>
      <path id="path54" d="M567.684-212.286q-16.12.739-32.238.989c-10.747.2-21.493.258-32.239.284-10.747-.022-21.492-.076-32.238-.28q-16.12-.248-32.239-.993,16.118-.743,32.239-.993c10.745-.2,21.491-.256,32.238-.279,10.746.025,21.492.08,32.239.283q16.118.252,32.238.989" transform="translate(-49.201 525.807)" fill="#e1dcda"/>
      <path id="path55" d="M592.8-281.483H413.084c-11.872-13.017-13.154-29.677,0-39.482H592.8v4.726H587.1v29.471H592.8v5.285" transform="translate(-47.605 530.7)" fill="#47a2df"/>
      <path id="path56" d="M587.414-286.542H416.76c-8.221-6.528-8.461-23.49,0-29.471H587.414v29.471" transform="translate(-47.915 530.475)" fill="#fff"/>
      <path id="path57" d="M416.881-286.542h-.121c-4.142-3.29-6.258-9.229-6.256-15.077,0-5.757,2.059-11.426,6.256-14.394H587.414v5.494H421.091c-6.629,4.684-7.915,16.109-4.21,23.978" transform="translate(-47.915 530.475)" fill="#d4d3d1"/>
      <path id="path58" d="M424.116-304.22q16.12-.739,32.239-.989c10.747-.2,21.492-.258,32.238-.284,10.747.023,21.492.076,32.239.28q16.12.248,32.238.993-16.118.742-32.238.993c-10.747.2-21.492.256-32.239.279-10.745-.025-21.491-.08-32.238-.283q-16.12-.252-32.239-.989" transform="translate(-48.536 529.995)" fill="#e1dcda"/>
      <path id="path59" d="M443.778-294.88q16.118-.737,32.238-.99c10.747-.2,21.492-.257,32.239-.281,10.745.022,21.491.075,32.238.279q16.12.248,32.238.993-16.118.742-32.238.993c-10.747.2-21.492.257-32.238.28-10.747-.027-21.492-.08-32.239-.284q-16.12-.25-32.238-.989" transform="translate(-49.431 529.57)" fill="#e1dcda"/>
      <path id="path60" d="M423.183-157.523H602.9c11.87-13.017,13.153-29.677,0-39.481H423.183v4.725h5.695v29.47h-5.695v5.285" transform="translate(-48.493 525.053)" fill="#eca921"/>
      <path id="path61" d="M400.669-157.523H580.383c11.87-13.017,13.153-29.677,0-39.481H400.669v4.725h5.693v29.47h-5.693v5.285" transform="translate(-47.467 525.053)" fill="#fadb2f"/>
      <path id="path62" d="M406.634-162.583H577.288c8.221-6.529,8.461-23.49,0-29.47H406.634v29.47" transform="translate(-47.739 524.827)" fill="#fff"/>
      <path id="path63" d="M579.323-162.583H579.2c3.706-7.867,2.419-19.292-4.208-23.978H455.96c-1.752-1.93-3.253-3.732-4.65-5.492H579.323c4.2,2.966,6.253,8.636,6.256,14.393,0,5.849-2.114,11.788-6.256,15.077" transform="translate(-49.774 524.827)" fill="#d4d3d1"/>
      <path id="path64" d="M572.221-180.26q-16.12.737-32.239.989c-10.745.2-21.492.257-32.238.284-10.745-.023-21.492-.078-32.239-.28q-16.118-.248-32.238-.993,16.118-.743,32.238-.994c10.747-.2,21.494-.256,32.239-.277,10.745.024,21.492.079,32.238.281q16.12.252,32.239.99" transform="translate(-49.408 524.348)" fill="#e1dcda"/>
      <path id="path65" d="M552.559-170.92q-16.118.739-32.238.99c-10.746.2-21.492.257-32.239.283-10.745-.023-21.491-.076-32.238-.279q-16.118-.25-32.238-.994,16.118-.741,32.238-.993c10.747-.2,21.492-.257,32.238-.279,10.747.025,21.494.08,32.239.283q16.12.252,32.238.989" transform="translate(-48.512 523.922)" fill="#e1dcda"/>
      <path id="path66" d="M423.013-322.446H602.728c11.87-13.017,13.154-29.677,0-39.481H423.013v4.725h5.693v29.471h-5.693v5.285" transform="translate(-48.485 532.566)" fill="#42b953"/>
      <path id="path67" d="M400.5-322.446H580.212c11.872-13.017,13.154-29.677,0-39.481H400.5v4.725h5.693v29.471H400.5v5.285" transform="translate(-47.46 532.566)" fill="#2c9662"/>
      <path id="path68" d="M406.463-327.505H577.118c8.219-6.53,8.461-23.49,0-29.471H406.463v29.471" transform="translate(-47.731 532.341)" fill="#fff"/>
      <path id="path69" d="M577.118-327.505H577c3.707-7.868,2.42-19.293-4.208-23.977H406.463v-5.494H577.118c4.2,2.968,6.253,8.637,6.256,14.394,0,5.847-2.114,11.786-6.256,15.077" transform="translate(-47.731 532.341)" fill="#d4d3d1"/>
      <path id="path70" d="M572.052-345.184q-16.12.739-32.239.99c-10.745.2-21.492.257-32.238.283-10.747-.023-21.492-.076-32.239-.279q-16.118-.25-32.238-.994,16.118-.741,32.238-.993c10.747-.2,21.492-.257,32.239-.279,10.745.025,21.492.08,32.238.282q16.118.252,32.239.989" transform="translate(-49.4 531.861)" fill="#e1dcda"/>
      <path id="path71" d="M552.389-335.843q-16.118.737-32.238.99c-10.745.2-21.492.257-32.239.281-10.745-.022-21.492-.076-32.238-.279q-16.118-.248-32.239-.993,16.12-.743,32.239-.994c10.745-.2,21.492-.256,32.238-.277,10.747.025,21.493.079,32.239.283q16.118.25,32.238.989" transform="translate(-48.505 531.436)" fill="#e1dcda"/>
      <path id="path72" d="M406.49-240.037H598.358a2.544,2.544,0,0,0,2.545-2.545v-34.888a2.545,2.545,0,0,0-2.545-2.545H406.49a2.546,2.546,0,0,0-2.545,2.545v34.888a2.545,2.545,0,0,0,2.545,2.545" transform="translate(-47.617 528.835)" fill="#fadb2f"/>
      <path id="path73" d="M610.141-241.558l-.111-.154a2.555,2.555,0,0,0,.153-.87v-34.888a2.545,2.545,0,0,0-2.545-2.545h.621a1.925,1.925,0,0,1,1.924,1.925v36.13a2,2,0,0,1-.042.4" transform="translate(-56.896 528.835)" fill="#ebebea"/>
      <path id="path74" d="M608.227-238.209h-.621A2.546,2.546,0,0,0,610-239.883l.111.154a1.926,1.926,0,0,1-1.882,1.521" transform="translate(-56.865 527.006)" fill="#cee0dd"/>
      <path id="path75" d="M403.945-277.471v-.62a1.925,1.925,0,0,1,1.924-1.925h.621a2.546,2.546,0,0,0-2.545,2.545" transform="translate(-47.617 528.835)" fill="#40af92"/>
      <path id="path76" d="M598.358-240.037H597.7v-30.877a1.924,1.924,0,0,0-1.924-1.924H408.652q-.237-.372-.458-.713-.376.359-.767.713h-3.482v-4.632a2.546,2.546,0,0,1,2.545-2.545H598.358a2.545,2.545,0,0,1,2.545,2.545v34.888a2.555,2.555,0,0,1-.153.87,2.546,2.546,0,0,1-2.392,1.675" transform="translate(-47.617 528.835)" fill="#e3c62c"/>
      <path id="path77" d="M558.714-240.267h23.578v-39.748H558.714v39.748" transform="translate(-54.668 528.835)" fill="#eca921"/>
      <path id="path78" d="M534.348-245.432h15.259v-28.9H534.348v28.9" transform="translate(-53.558 528.576)" fill="#eca921"/>
      <path id="path79" d="M406.49-363.835H598.358a2.545,2.545,0,0,0,2.545-2.545v-34.888a2.544,2.544,0,0,0-2.545-2.545H406.49a2.545,2.545,0,0,0-2.545,2.545v34.888a2.546,2.546,0,0,0,2.545,2.545" transform="translate(-47.617 534.475)" fill="#3693a5"/>
      <path id="path80" d="M608.259-363.835h-.621a2.545,2.545,0,0,0,2.545-2.545v-34.888a2.544,2.544,0,0,0-2.545-2.545h.621a1.924,1.924,0,0,1,1.924,1.924v36.129a1.925,1.925,0,0,1-1.924,1.925" transform="translate(-56.896 534.475)" fill="#ebebea"/>
      <path id="path81" d="M608.227-361.927h0" transform="translate(-56.865 532.566)" fill="#3ea950"/>
      <path id="path82" d="M403.945-401.269v-.621a1.924,1.924,0,0,1,1.924-1.924h.621a2.545,2.545,0,0,0-2.545,2.545" transform="translate(-47.617 534.475)" fill="#cee0dd"/>
      <path id="path83" d="M598.358-363.835H597.7v-30.879a1.925,1.925,0,0,0-1.924-1.925H403.945v-4.63a2.545,2.545,0,0,1,2.545-2.545H598.358a2.544,2.544,0,0,1,2.545,2.545v34.888a2.545,2.545,0,0,1-2.545,2.545h0" transform="translate(-47.617 534.475)" fill="#318598"/>
      <path id="path84" d="M558.714-364.067h23.578v-39.747H558.714v39.747" transform="translate(-54.668 534.475)" fill="#3c6b8d"/>
      <path id="path85" d="M534.348-369.232h15.259v-28.9H534.348v28.9" transform="translate(-53.558 534.216)" fill="#3c6b8d"/>
      <path id="path86" d="M451.229-185.361c-11.543,3.4-32.273-.069-54.924-3.535-31.911-4.883-67.634-9.767-86.86,4.544-12.7,3.7-16.3-2.38-16.45-13.095,24.671-37.47,56.666-26.908,90.187-16.347,17.428,5.491,35.268,10.981,52.706,9.722,5.37,6.589,8.5,11.672,15.341,18.71" transform="translate(-42.562 526.269)" fill="#fff"/>
      <path id="path87" d="M433.556-222.069c-87.888,12.164-126.2,12.164-140.409,45.788,0-7.6,0-12.9-.112-23.367,4.934-46.227,84.3-48.963,110.105-73.595,6.657,10.234,25.175,43.775,30.415,51.173" transform="translate(-42.564 528.526)" fill="#fff"/>
      <path id="path88" d="M452.026-157.924H310.494v-17.031H452.026v17.031" transform="translate(-43.359 524.048)" fill="#2b3431"/>
      <path id="path89" d="M466.645-154.582c-12.559,3.622-38.808-1.134-66.8-5.889-34.47-5.855-71.589-11.71-89.064-1.931-13.684,3.909-24.53,7.187-17.724-13.837,26.366-39.279,63.167-27.29,100.822-15.3,20.044,6.382,40.329,12.764,59.412,11.414,3.567,8.236,7.819,17.723,13.358,25.543" transform="translate(-42.469 525.332)" fill="#d4bab2"/>
      <path id="path90" d="M305.76-177.39a40.927,40.927,0,0,1,15.124-10.081,64.709,64.709,0,0,1,17.876-4.165c12.28-1.219,24.595.837,36.372,3.871,11.812,3.092,23.225,7.241,34.815,10.639,11.579,3.361,23.438,6.054,35.6,6.187a92.468,92.468,0,0,1-18.218-.655,152.142,152.142,0,0,1-17.911-3.618c-11.8-3.038-23.255-7.083-34.929-10.091a146.538,146.538,0,0,0-17.658-3.609,88.471,88.471,0,0,0-17.915-.751,72.835,72.835,0,0,0-8.909,1.1,58.234,58.234,0,0,0-8.693,2.252,42.668,42.668,0,0,0-15.556,8.918" transform="translate(-43.143 524.824)" fill="#8e7f81"/>
      <path id="path91" d="M309.766-168.946a36.851,36.851,0,0,1,7.819-4.292,62.327,62.327,0,0,1,8.5-2.825,95.312,95.312,0,0,1,17.72-2.638c11.966-.741,23.937.573,35.665,2.565,11.742,2.044,23.283,4.815,34.887,7.1,11.606,2.255,23.317,4.065,35.2,4.329-11.867.728-23.822-.433-35.548-2.375-11.751-1.9-23.322-4.569-34.967-6.549-11.627-2.027-23.381-3.421-35.147-3.1a105.883,105.883,0,0,0-17.532,1.871,51.892,51.892,0,0,0-16.6,5.908" transform="translate(-43.326 524.228)" fill="#8e7f81"/>
      <path id="path92" d="M127.555-185.361c27.8,8.186,108.91-23.46,141.783,1.009,12.7,3.7,16.3-2.38,16.45-13.093-37.5-56.951-91.91-2.947-142.894-6.626-5.369,6.589-8.5,11.672-15.34,18.71" transform="translate(-35.025 526.269)" fill="#fff"/>
      <path id="path93" d="M146.072-222.069c87.889,12.164,126.2,12.164,140.41,45.788,0-7.6,0-12.9.112-23.368-4.935-46.226-84.3-48.962-110.105-73.593-6.657,10.234-25.175,43.775-30.417,51.173" transform="translate(-35.868 528.526)" fill="#fff"/>
      <path id="path94" d="M127.555-157.924H269.088v-17.031H127.555v17.031" transform="translate(-35.025 524.048)" fill="#2b3431"/>
      <path id="path95" d="M111.307-154.582c28.019,8.079,124.2-25.543,155.868-7.82,13.684,3.911,24.53,7.187,17.724-13.837-40.4-60.187-105.3,0-160.234-3.886-3.567,8.236-7.819,17.723-13.358,25.543" transform="translate(-34.284 525.332)" fill="#d4bab2"/>
      <path id="path96" d="M273.9-177.39a42.679,42.679,0,0,0-15.556-8.918,58.24,58.24,0,0,0-8.694-2.252,72.808,72.808,0,0,0-8.908-1.1,88.486,88.486,0,0,0-17.916.751,146.586,146.586,0,0,0-17.658,3.609c-11.673,3.008-23.129,7.054-34.928,10.091a152.189,152.189,0,0,1-17.911,3.618,92.478,92.478,0,0,1-18.219.655c12.164-.134,24.023-2.826,35.6-6.187,11.589-3.4,23-7.546,34.816-10.639,11.776-3.034,24.092-5.09,36.372-3.871a64.7,64.7,0,0,1,17.874,4.165A40.932,40.932,0,0,1,273.9-177.39" transform="translate(-35.324 524.824)" fill="#8e7f81"/>
      <path id="path97" d="M269.9-168.946a51.893,51.893,0,0,0-16.6-5.908,105.914,105.914,0,0,0-17.533-1.871c-11.765-.325-23.518,1.069-35.145,3.1-11.645,1.98-23.217,4.647-34.967,6.549-11.727,1.942-23.681,3.1-35.548,2.375,11.88-.265,23.593-2.074,35.2-4.329,11.6-2.286,23.145-5.057,34.886-7.1,11.729-1.993,23.7-3.306,35.666-2.565a95.325,95.325,0,0,1,17.72,2.638,62.393,62.393,0,0,1,8.5,2.825,36.85,36.85,0,0,1,7.819,4.292" transform="translate(-35.141 524.228)" fill="#8e7f81"/>
      <path id="path98" d="M310.22-161.118l-11.089-11.089a9.385,9.385,0,0,0-13.27,0l-11.089,11.089,17.724,9.633,17.724-9.633" transform="translate(-41.732 524.048)" fill="#2b3431"/>
      <path id="path99" d="M311.317-162.558l-11.089-11.089a11.267,11.267,0,0,0-7.985-3.307,11.27,11.27,0,0,0-7.985,3.307l-11.089,11.089,2.7,2.7,11.088-11.089a7.451,7.451,0,0,1,5.286-2.189,7.446,7.446,0,0,1,5.285,2.189l11.089,11.089,2.7-2.7" transform="translate(-41.659 524.139)" fill="#b49e89"/>
      <path id="path100" d="M466.6-155.971,330.062-162.82l-19.331-.971a3.253,3.253,0,0,0-3.068,2.336c-1.39,3.806-10.03,5.369-14.656,5.483-4.087.1-4.1,6.465,0,6.363,7.483-.186,17.829-2.036,20.791-10.155q-1.533,1.168-3.067,2.335l136.535,6.85,19.333.97c4.092.206,4.081-6.158,0-6.363" transform="translate(-42.422 523.54)" fill="#3693a5"/>
      <path id="path101" d="M111.128-149.608l136.535-6.849L267-157.428q-1.535-1.166-3.068-2.335c2.963,8.116,13.321,9.969,20.792,10.155,4.1.1,4.094-6.261,0-6.363-4.627-.115-13.268-1.677-14.656-5.483A3.273,3.273,0,0,0,267-163.791l-136.536,6.85-19.332.97c-4.075.2-4.1,6.569,0,6.363" transform="translate(-34.137 523.54)" fill="#3693a5"/>
      <path id="path102" d="M416.481-365.091a2.793,2.793,0,0,0-.986-.155.888.888,0,0,0-.78.54.919.919,0,0,0,.023.557c.3.949,1.368,1.383,2.311,1.7l10.469,3.47a1.244,1.244,0,0,0,.482.092,1.012,1.012,0,0,0,.5-.211,4.721,4.721,0,0,0,1.612-3.482,12.946,12.946,0,0,1,.631-3.888c.186-.426.439-.919.215-1.326a1.265,1.265,0,0,0-.467-.421,14.93,14.93,0,0,0-3.237-1.516,22.721,22.721,0,0,1-1.442,3.871c-2.115,2.7-6.551,1.54-9.332.772" transform="translate(-48.106 532.922)" fill="#1e1a38"/>
      <path id="path103" d="M466.568-468.706l.113.268a.551.551,0,0,0,.327.135,20.824,20.824,0,0,0,7.69-.574q-1.027-4.436-2.289-8.812l-.131-.239-.321-.029q-1.955.351-3.9.746c-1.1.223-2.2.347-3.292.6a40.447,40.447,0,0,1,.957,4.047q.4,1.936.846,3.862" transform="translate(-50.387 537.852)" fill="#d89275"/>
      <path id="path104" d="M430.886-402.552a84.106,84.106,0,0,1,4.154-11.293,4.584,4.584,0,0,1,1.292-1.871,4.744,4.744,0,0,1,1.707-.672q7.2-1.8,14.391-3.592a85.445,85.445,0,0,1,14.368-2.726c3.036-.22,11.924-1.168,13.048,2.525a5,5,0,0,1-.674,3.763c-2.285,4.173-6.933,6.425-11.42,8.008a80.145,80.145,0,0,1-23.442,4.5c-4.234,11.784-7.423,23.925-11.072,35.932l-9.425-2.551s2.723-14.469,3.076-15.981c1.265-5.426,2.447-10.786,4-16.041" transform="translate(-48.522 535.348)" fill="#1e1a38"/>
      <path id="path105" d="M446.311-357.877a2.8,2.8,0,0,0-.78.622.883.883,0,0,0-.129.94.917.917,0,0,0,.424.36c.9.42,1.944-.075,2.814-.56l9.629-5.375a1.262,1.262,0,0,0,.395-.294,1.021,1.021,0,0,0,.181-.512,4.722,4.722,0,0,0-1.477-3.54,12.953,12.953,0,0,1-2.441-3.091c-.19-.425-.38-.945-.833-1.055a1.257,1.257,0,0,0-.626.06,15.032,15.032,0,0,0-3.3,1.364,22.664,22.664,0,0,1,1.881,3.678c.564,3.384-3.29,5.87-5.733,7.4" transform="translate(-49.501 532.952)" fill="#1e1a38"/>
      <path id="path106" d="M459.508-474.859a5.328,5.328,0,0,0,4.21,1.724,11.639,11.639,0,0,0,5.261-2.256c3.072-2.255,5.772-5.859,6.3-9.712.778-5.673-4.127-10.309-9.417-11.153a12.07,12.07,0,0,0-1.88-.153c-3.295,0-6.621.926-8.595,3.688-2.226,3.117-1.535,7.9-.214,11.286a19.384,19.384,0,0,0,4.333,6.575" transform="translate(-49.895 538.693)" fill="#f9a886"/>
      <path id="path107" d="M448.213-402.342a58.116,58.116,0,0,1,2.688,8.322c2.034,7.569,6.082,22.713,6.082,22.713l-8.45,2.522c-2.109-5.851-4.579-11.564-7.061-17.264-.869-1.994-1.715-4-2.569-6-1.527-3.581-3.074-7.154-4.806-10.637-2.184-4.393-3.482-8.116-3.15-13.129.209-3.155,1.368-5.494,4.572-6.12a82.52,82.52,0,0,1,10.393-1.334c2.3-.153,4.6-.212,6.906-.272l16.349-.426,8.365-.218c1.8-.047,4.191-.685,5.926-.344.789,2.952,1.327,6.57.369,9.54-2.6,8.059-9.925,11.914-18.1,11.629a39.809,39.809,0,0,1-14-3.542,16.723,16.723,0,0,0-5.247-1.635c-.354,2.013.953,4.412,1.733,6.2" transform="translate(-48.844 535.423)" fill="#1e1a38"/>
      <path id="path108" d="M460.233-425.822c4.291-.137,24.965.156,24.95.019-.7-6.532-.187-13.315-.286-19.907a48.584,48.584,0,0,0-2.558-16.151c-1.675-4.532-4.5-9.39-9.984-9.3a9.465,9.465,0,0,0-2.9.52c-4.631,1.577-6.974,6.248-8.269,10.633-1.68,5.692-1.713,11.7-1.577,17.588.071,3.115-.176,6.228-.073,9.343.081,2.42.442,4.847.692,7.255" transform="translate(-50.148 537.543)" fill="#47c09d"/>
      <path id="path109" d="M468.38-481.55c.036,1.77,1.939,2.311,2.942,3.629a8.292,8.292,0,0,1,1.71,5.516,5.514,5.514,0,0,0,.019,1.946c.3,1.013,1.3,1.62,2.123,2.28,3.058,2.443,4.337,6.416,5.73,10.075a11.73,11.73,0,0,0,2.067,3.813,6.8,6.8,0,0,0,6,2.048c2.919-.459,4.658-2.624,6.238-4.89a7.506,7.506,0,0,0,.733-7.1c-1.329-3.118-4.82-5.506-4.525-8.883.126-1.435.958-2.723,1.176-4.149.429-2.815-1.587-5.4-3.72-7.287s-4.614-3.628-5.658-6.278c-.781-1.983-.639-4.222-1.321-6.241a10.034,10.034,0,0,0-5.76-5.77,19.168,19.168,0,0,0-8.253-1.176A23.771,23.771,0,0,0,458.6-501.9a14.3,14.3,0,0,0-6.784,6.517,3.246,3.246,0,0,0-.391,1.413c.025,1.449,1.631,2.316,3.052,2.615,1.569.33,2.857.489,3.992,1.657.821.845,1.241,2.092,2.3,2.725a5.814,5.814,0,0,0,2.143.812,7.764,7.764,0,0,0,1.943-.261,1.485,1.485,0,0,1,.862-1.773,2.226,2.226,0,0,1,2.082.312c2.331,1.614.538,4.122.583,6.331" transform="translate(-49.78 539.041)" fill="#1e1a38"/>
      <path id="path110" d="M475.284-447.01c.406,1.2.809,2.4,1.294,3.6l3.111,7.705a3.664,3.664,0,0,0,1.845,2.342,2.371,2.371,0,0,0,1.771-.178,4.407,4.407,0,0,0,2.194-2.885c.748-2.793-.319-5.659-1.145-8.306a110.488,110.488,0,0,0-5.538-14.026,27.789,27.789,0,0,0-1.8-3.529,6.617,6.617,0,0,0-2.918-2.593,3.8,3.8,0,0,0-3.758.407c-1.2.97-1,2.466-.554,3.768a90.431,90.431,0,0,0,3.684,8.964,44.047,44.047,0,0,1,1.813,4.735" transform="translate(-50.6 537.271)" fill="#f9a886"/>
      <path id="path111" d="M473.818-437.8a118.09,118.09,0,0,0-18.349,3.716,3.479,3.479,0,0,0-1.383.583,2.068,2.068,0,0,0,.4,3.318,3.1,3.1,0,0,0,1,.15,68.491,68.491,0,0,0,9,.039c3.128-.3,6.255-.635,9.371-1.042q1.886-.246,3.766-.531c1.589-.243,3.316-.244,4.74-1.085a1.152,1.152,0,0,0,.384-.322,1.2,1.2,0,0,0,.153-.422,3.98,3.98,0,0,0,.006-2.063c-.711-2.157-2.965-2.6-4.954-2.571-1.385.02-2.764.1-4.138.23" transform="translate(-49.871 536.034)" fill="#f9a886"/>
      <path id="path112" d="M428.665-421.162l25.745-2.483-.293-3.038L428.372-424.2l.293,3.039" transform="translate(-48.729 535.516)" fill="#3693a5"/>
      <path id="path113" d="M430.866-423.287l-10-23.855-2.814,1.18,10,23.854,2.815-1.178" transform="translate(-48.259 536.449)" fill="#3693a5"/>
      <path id="path114" d="M444.71-433.33a7.4,7.4,0,0,1,1.336-.388q1.628-.338,3.257-.68a6.468,6.468,0,0,1,3.29-.108,6.36,6.36,0,0,1,1.447.758l2.334,1.49a2.4,2.4,0,0,1-.846,2.045,7.109,7.109,0,0,1-1.978,1.157,10.257,10.257,0,0,1-1.527.589c-2.473.664-5.03-.561-7.222-1.885q-.263,1.277-.527,2.55c-.116.562-.716,1.845-1.467,1.045a1.407,1.407,0,0,1-.188-1.168q.178-1.325.356-2.647a5.3,5.3,0,0,1,.4-1.623,2.463,2.463,0,0,1,1.339-1.136" transform="translate(-49.377 535.881)" fill="#f9a886"/>
      <path id="path115" d="M468.512-457.163c.757,2.411,1.3,5.08,2.585,7.273.987-.365,11.307-4.217,11.547-3.707l-3.166-6.7a15.509,15.509,0,0,0-3.114-4.887,5.27,5.27,0,0,0-5.352-1.36,4.674,4.674,0,0,0-2.532,2.754,10.666,10.666,0,0,0,.033,6.628" transform="translate(-50.533 537.345)" fill="#47c09d"/>
      <path id="path116" d="M461.86-477.76a27.457,27.457,0,0,1-3.52,1.512c-.167.048-.341.07-.509.112a14.541,14.541,0,0,0,1.854,2.126q.221.2.448.386a3.745,3.745,0,0,0,1.572-1.47,3.211,3.211,0,0,0,.392-1.411c0-.094-.1-1.315-.237-1.255" transform="translate(-50.072 537.844)" fill="#fff"/>
      <path id="path117" d="M456.634-482.878c.242.892.822,1.511,1.294,1.382s.659-.956.417-1.848-.822-1.51-1.3-1.382-.659.956-.416,1.848" transform="translate(-50.012 538.162)" fill="#1e1a38"/>
      <path id="path118" d="M455.664-485.951a2.651,2.651,0,0,1,3.157.307c.618.531,1.522-.365.9-.9a3.947,3.947,0,0,0-4.7-.506c-.681.449-.045,1.551.643,1.1" transform="translate(-49.93 538.292)" fill="#1e1a38"/>
      <path id="path121" d="M336.856-240.844l.183-.564c.151.1.3.195.453.29l-.636.274" transform="translate(-44.56 527.076)" fill="#e4f5f4"/>
      <path id="path122" d="M317.4-232.63a39.358,39.358,0,0,1,9.766-37.985c-.005.02-.009.038-.014.059a39.485,39.485,0,0,0-6.313,8.857,40.091,40.091,0,0,0,2.657,5.627c-1.119,4.529-2.149,9.007-2.942,13.406q-.805,4.482-1.489,9-.842.512-1.665,1.036m3.08-1.88q.615-3.978,1.326-7.931c.71-3.961,1.621-8,2.619-12.089a38.472,38.472,0,0,0,3.716,4.932,39.428,39.428,0,0,0,7.95,6.859l-.183.564a142.045,142.045,0,0,0-15.427,7.665" transform="translate(-43.609 528.406)" fill="#60c8ab"/>
      <path id="path123" d="M319.209-233.743q.68-4.516,1.489-9c.793-4.4,1.824-8.877,2.942-13.406q.445.779.929,1.542c-1,4.091-1.909,8.128-2.619,12.089q-.71,3.951-1.326,7.931c-.476.277-.948.56-1.415.844m8.087-36.89c.005-.02.009-.038.014-.059q.807-.825,1.672-1.612-.874.815-1.686,1.671" transform="translate(-43.756 528.483)" fill="#7dd2b6"/>
      <path id="path124" d="M361.894-201.529a97.253,97.253,0,0,0-18.749-2.03h-.336q-1.624-.6-3.2-1.337c12.05-2.95,26.7-5.195,44.4-7.574q-.729.718-1.5,1.4a39.161,39.161,0,0,1-20.608,9.538" transform="translate(-44.686 525.757)" fill="#fdfefe"/>
      <path id="path125" d="M338.6-206.9a39.205,39.205,0,0,1-12.633-9.473,39.165,39.165,0,0,1-8.5-15.612q.823-.525,1.665-1.036c.467-.284.939-.566,1.415-.844a142.047,142.047,0,0,1,15.427-7.665l.636-.274a39.352,39.352,0,0,0,21.032,6.073,39.2,39.2,0,0,0,26.1-9.921,39.1,39.1,0,0,0,8.454-10.719,39.367,39.367,0,0,1-9.2,41.9c-17.7,2.38-32.346,4.624-44.4,7.574" transform="translate(-43.677 527.757)" fill="#fdfefe"/>
      <path id="path126" d="M356.557-200.721a39.484,39.484,0,0,1-13.595-2.413h.336a97.257,97.257,0,0,1,18.749,2.03,39.489,39.489,0,0,1-5.49.383" transform="translate(-44.838 525.332)" fill="#d9c6c0"/>
      <path id="path127" d="M355.321-203.894a39.247,39.247,0,0,1-29.434-13.223,39.34,39.34,0,0,1,3.3-55.537c.047-.043.1-.085.143-.127q-.25.227-.5.456-.865.786-1.672,1.612a39.358,39.358,0,0,0-9.766,37.985,39.164,39.164,0,0,0,8.5,15.612,39.2,39.2,0,0,0,12.633,9.473q1.575.743,3.2,1.337a39.485,39.485,0,0,0,13.595,2.413h-.006" transform="translate(-43.608 528.505)" fill="#47a7b3"/>
      <path id="path128" d="M386.024-270.842a39.121,39.121,0,0,0-13.686-9.3s0,0,0-.005a39.113,39.113,0,0,1,13.689,9.292l0,.009M371.1-280.615a39.511,39.511,0,0,0-5.156-1.49v0a39.349,39.349,0,0,1,5.158,1.49v0" transform="translate(-45.885 528.93)" fill="#86d158"/>
      <path id="path129" d="M372.584-280.067c-.411-.167-.825-.325-1.239-.477v0c.416.151.828.309,1.241.476,0,0,0,0,0,.005" transform="translate(-46.131 528.859)" fill="#3da770"/>
      <path id="path130" d="M365.459-282.148a39.593,39.593,0,0,0-8.372-.9q-.867,0-1.734.038.872-.038,1.746-.038a39.647,39.647,0,0,1,8.359.892v0" transform="translate(-45.403 528.973)" fill="#7dd2b6"/>
      <path id="path131" d="M392.4-263.169a39.575,39.575,0,0,0-4.439-6.073q-.483-.542-.98-1.063l0-.009q.5.525.987,1.072a39.644,39.644,0,0,1,4.436,6.068l-.009.005" transform="translate(-46.844 528.393)" fill="#60c8ab"/>
      <path id="path132" d="M395.623-256.66a39.071,39.071,0,0,0-2.964-6.168l.009-.005a39.151,39.151,0,0,1,2.963,6.16l-.008.013" transform="translate(-47.102 528.052)" fill="#fdfefe"/>
      <path id="path133" d="M392.775-257.608a39.149,39.149,0,0,0-2.963-6.16,39.638,39.638,0,0,0-4.436-6.068q-.487-.546-.987-1.072A39.114,39.114,0,0,0,370.7-280.2c-.412-.167-.825-.325-1.241-.476a39.343,39.343,0,0,0-5.158-1.49,39.649,39.649,0,0,0-8.359-.892q-.872,0-1.746.038a39.172,39.172,0,0,0-24.227,9.757l.188-.168a39.2,39.2,0,0,1,26.1-9.921A39.243,39.243,0,0,1,385.7-270.128a39.124,39.124,0,0,1,7.3,12.1c-.074.14-.148.28-.223.42" transform="translate(-44.246 528.987)" fill="#47a7b3"/>
      <path id="path134" d="M337.5-241.519c-.151-.1-.3-.192-.453-.29.915-2.8,1.843-5.611,2.825-8.422q2.449,2.879,5.015,5.695c-2.49.976-4.96,1.98-7.387,3.017" transform="translate(-44.569 527.478)" fill="#e6f5f4"/>
      <path id="path135" d="M376.5-257.248A131.2,131.2,0,0,0,372-269.7q-.008-.68-.008-1.359,0-4.518.344-9.08a39.122,39.122,0,0,1,13.686,9.3,103.4,103.4,0,0,0-4.449,11.569q-2.489,1.025-5.076,2.025m-5.767-15.37q-2.188-4.858-4.79-9.487a39.507,39.507,0,0,1,5.156,1.49q-.311,4.02-.366,8" transform="translate(-45.885 528.93)" fill="#9bd873"/>
      <path id="path136" d="M372.23-269.628q-.617-1.47-1.27-2.919.053-3.982.366-8c.415.153.828.311,1.239.477q-.34,4.568-.344,9.08,0,.68.008,1.359" transform="translate(-46.114 528.859)" fill="#56b787"/>
      <path id="path137" d="M345.023-246.031q-2.573-2.814-5.015-5.695.219-.626.443-1.253a61.545,61.545,0,0,0,3.5-20.576q.542.884,1.069,1.77c4.15,6.962,8.116,14.072,11.793,21.323-3.937,1.437-7.891,2.9-11.79,4.431m12.994-4.869c-3.711-7.331-7.715-14.508-11.9-21.537q-1.075-1.806-2.209-3.609-.092-2.426-.368-4.841a39.3,39.3,0,0,1,11.117-2.119q.867-.038,1.734-.038a39.593,39.593,0,0,1,8.372.9q2.606,4.625,4.79,9.487.655,1.451,1.27,2.919a131.22,131.22,0,0,1,4.5,12.451c-5.556,2.154-11.4,4.245-17.3,6.391" transform="translate(-44.704 528.973)" fill="#90d9c1"/>
      <path id="path138" d="M357-250.128c-3.676-7.251-7.643-14.361-11.793-21.323q-.527-.886-1.069-1.77c0-.831-.015-1.659-.047-2.49q1.132,1.8,2.209,3.609c4.188,7.028,8.193,14.206,11.9,21.537l-1.2.438" transform="translate(-44.89 528.639)" fill="#77d0b8"/>
      <path id="path139" d="M382.321-258.735A103.406,103.406,0,0,1,386.77-270.3q.5.521.98,1.063a39.574,39.574,0,0,1,4.439,6.073c-3.1,1.542-6.406,3.008-9.867,4.434" transform="translate(-46.631 528.392)" fill="#77d0b8"/>
      <path id="path140" d="M336.32-243.2a39.425,39.425,0,0,1-7.95-6.859,38.466,38.466,0,0,1-3.716-4.932c1.42-5.822,3.016-11.753,4.455-17.736.107-.1.215-.195.323-.29a39.236,39.236,0,0,1,13.241-7.765q.275,2.413.368,4.841c.032.831.048,1.659.047,2.49a61.545,61.545,0,0,1-3.5,20.576q-.223.626-.443,1.253c-.982,2.811-1.91,5.618-2.825,8.422m-12.595-13.334a40.085,40.085,0,0,1-2.657-5.627,39.486,39.486,0,0,1,6.313-8.857c-1.2,4.862-2.476,9.7-3.656,14.484" transform="translate(-43.841 528.87)" fill="#77d0b8"/>
      <path id="path141" d="M324.781-254.608q-.483-.764-.929-1.542c1.18-4.781,2.459-9.622,3.656-14.484q.811-.855,1.686-1.671c.014-.014.027-.025.042-.038-1.439,5.982-3.035,11.914-4.455,17.736" transform="translate(-43.968 528.485)" fill="#90d9c1"/>
      <path id="path142" d="M358.554-236.02a39.352,39.352,0,0,1-21.032-6.073c2.427-1.037,4.9-2.041,7.387-3.017,3.9-1.528,7.853-2.994,11.79-4.431l1.2-.438c5.9-2.146,11.744-4.236,17.3-6.391q2.585-1,5.076-2.025c3.461-1.425,6.77-2.891,9.867-4.434a39.063,39.063,0,0,1,2.964,6.168,39.1,39.1,0,0,1-8.454,10.719,39.2,39.2,0,0,1-26.1,9.921" transform="translate(-44.59 528.052)" fill="#fafcfc"/>
      <path id="path143" d="M329.449-272.791q.246-.229.5-.456A39.172,39.172,0,0,1,354.172-283a39.3,39.3,0,0,0-11.117,2.119,39.236,39.236,0,0,0-13.241,7.765c-.108.1-.216.193-.323.29-.015.013-.028.024-.042.038" transform="translate(-44.223 528.971)" fill="#5eb8be"/>
    </g>
  </g>
</svg>
