<svg xmlns="http://www.w3.org/2000/svg" width="50" height="38" viewBox="0 0 50 38">
  <path id="people" d="M26.906,5c-8.867,0-12.16,6.852-9.625,12.656a2.169,2.169,0,0,0-.719,2.031c.211,2.109,1.16,2.613,1.688,2.719.211,2,1.48,4.34,2.219,4.656,0,1.371-.02,2.52-.125,4C18.727,35.309,8.391,34.324,7.063,41.938A1.026,1.026,0,0,0,8.031,43H42a.842.842,0,0,0,.938-1.094c-1.352-7.582-11.664-6.6-13.281-10.844-.105-1.586-.125-2.629-.125-4,.738-.316,1.914-2.758,2.125-4.656.527,0,1.371-.637,1.688-2.75.105-1.16-.328-1.895-.75-2,1.688-2.109,1.383-10.75-4.844-10.75Zm-11.75,5c-6.676.113-9.6,5.426-7.594,9.969a1.669,1.669,0,0,0-.531,1.625c.215,1.711.852,2.125,1.281,2.125A6.691,6.691,0,0,0,10,27.438a18.37,18.37,0,0,1-.094,2.313C9.039,32.484,0,32.281,0,39a.979.979,0,0,0,1,1H5.531c1.527-4.32,5.68-5.984,8.813-7.219,1.726-.68,3.5-1.367,4.031-2.219.059-.93.09-1.719.094-2.594a10.518,10.518,0,0,1-2-4.219,5.23,5.23,0,0,1-1.906-3.906,4.5,4.5,0,0,1,.469-2.531A11.029,11.029,0,0,1,15.156,10ZM38,10a20.585,20.585,0,0,0-3.156.25,11.638,11.638,0,0,1,.125,7.156,4.845,4.845,0,0,1,.375,2.438l-.031.063v.063a5.632,5.632,0,0,1-1.875,3.813,10.86,10.86,0,0,1-1.906,4.156c0,.859.035,1.633.094,2.625.535.852,2.309,1.539,4.031,2.219,3.129,1.23,7.281,2.9,8.813,7.219H49a.959.959,0,0,0,1-.969c0-7.734-8.559-5.9-9.844-9.438a15.518,15.518,0,0,1-.125-2.25,6,6,0,0,0,1.625-3.625c.43,0,1.066-.441,1.281-2.156.105-.855-.211-1.488-.531-1.594,1.289-1.715,1.078-8.469-3.75-8.469Z" transform="translate(0 -5)" fill="#ff5c31"/>
</svg>
