<svg xmlns="http://www.w3.org/2000/svg" width="58.279" height="52.451" viewBox="0 0 58.279 52.451">
  <path id="graduation_cap" d="M29.139,3a1.943,1.943,0,0,0-.918.231L1.043,16.818v0a1.937,1.937,0,0,0,0,3.438v0L28.21,33.843a1.933,1.933,0,0,0,1.848.008L57.216,20.271l.019-.008v0a1.937,1.937,0,0,0,0-3.438v0L30.069,3.239A1.943,1.943,0,0,0,29.139,3Zm27.2,22.056L52.451,27V44.334a3.866,3.866,0,0,0-1.943,3.347c0,2.147,3.885,7.77,3.885,7.77s3.885-5.624,3.885-7.77a3.866,3.866,0,0,0-1.943-3.347Zm-44.68,4.853v8.059c0,5.364,7.827,9.713,17.484,9.713s17.484-4.35,17.484-9.713V29.908L31.791,37.326a3.837,3.837,0,0,1-.493.2,5.54,5.54,0,0,1-4.31,0,3.693,3.693,0,0,1-.5-.209Z" transform="translate(0 -3)" fill="#ff5c31"/>
</svg>
