<svg xmlns="http://www.w3.org/2000/svg" width="58.279" height="61.305" viewBox="0 0 58.279 61.305">
  <path id="laurel_wreath_2" data-name="laurel_wreath 2" d="M24.826,7.656l-.846.395a11.155,11.155,0,0,0-5.464,5.784,11.56,11.56,0,0,0,.333,7.7,28.87,28.87,0,0,0-1.261,2.631c-1.3-3.95-5.3-6.074-5.3-6.074l-.816-.452-.432.827a11.061,11.061,0,0,0-.809,7.848A11.624,11.624,0,0,0,15.342,32.3a12.333,12.333,0,0,0-.055,1.454c0,.044-.005.089-.005.133,0,.57.022,1.124.057,1.668a12.186,12.186,0,0,0-6.255-3l-.923-.135-.112.928A10.733,10.733,0,0,0,10,40.762c2.539,3.173,6.925,3.732,6.925,3.732l.923.135.007-.053c.353.662.738,1.293,1.145,1.9a9.292,9.292,0,0,0-2.754-.276,13.026,13.026,0,0,0-5.026,1.328l-.828.428.448.818a10.939,10.939,0,0,0,6.013,4.98c3.96,1.116,7.892-.984,7.933-1.006.536.449,1.074.9,1.62,1.318.157.121.315.233.473.352a7.83,7.83,0,0,0-.8-.023,11.3,11.3,0,0,0-6.915,3.156l-.667.654.672.649a10.367,10.367,0,0,0,6.852,2.818,10.921,10.921,0,0,0,6.767-3.023c1.038.739,2,1.461,2.893,2.183a13.326,13.326,0,0,0-3.026,4.112.911.911,0,1,0,1.664.74,11.517,11.517,0,0,1,2.809-3.631,11.517,11.517,0,0,1,2.809,3.631.911.911,0,1,0,1.664-.74,13.326,13.326,0,0,0-3.026-4.112c.9-.722,1.855-1.445,2.893-2.183a10.921,10.921,0,0,0,6.767,3.023,10.367,10.367,0,0,0,6.852-2.818l.672-.649-.667-.654A11.3,11.3,0,0,0,48.18,54.4a7.418,7.418,0,0,0-.811.028c.161-.121.322-.234.482-.357.548-.421,1.09-.863,1.627-1.314.062.033,3.977,2.116,7.926,1a10.939,10.939,0,0,0,6.013-4.98l.448-.818-.828-.428A13.026,13.026,0,0,0,58.01,46.2a9.291,9.291,0,0,0-2.759.277c0-.008.007-.017.011-.025.4-.606.79-1.226,1.14-1.881l.007.053.923-.135s4.386-.558,6.925-3.732a10.739,10.739,0,0,0,1.956-7.412l-.112-.928-.925.135a12.183,12.183,0,0,0-6.255,3c.034-.532.054-1.075.055-1.632a12.017,12.017,0,0,0-.059-1.625,11.613,11.613,0,0,0,5.112-5.983,11.054,11.054,0,0,0-.809-7.848l-.432-.827-.816.452s-4,2.124-5.3,6.074a28.871,28.871,0,0,0-1.261-2.631,11.56,11.56,0,0,0,.333-7.7A11.155,11.155,0,0,0,50.28,8.051l-.846-.395-.373.857s-1.908,4.177-.5,8.148a10.7,10.7,0,0,0,5.2,5.643,32.058,32.058,0,0,1,1.509,3.268,12.677,12.677,0,0,0-5.213-2.119l-.925-.135-.112.928a10.739,10.739,0,0,0,1.956,7.412,11.243,11.243,0,0,0,6.145,3.581,20.973,20.973,0,0,1-1.058,5.636,11.163,11.163,0,0,0-2.806-5.064l-.644-.645-.644.645a10.478,10.478,0,0,0-3,6.749,9.879,9.879,0,0,0,2.347,6,35.3,35.3,0,0,1-3.54,3.227,10.455,10.455,0,0,0-.327-5.912l-.331-.873-.864.352a10.9,10.9,0,0,0-5.442,4.929A9.558,9.558,0,0,0,40.54,57c-1.21.842-2.354,1.688-3.41,2.562-1.056-.874-2.2-1.72-3.41-2.562a9.558,9.558,0,0,0-.267-6.714A10.9,10.9,0,0,0,28.01,45.36l-.864-.352-.331.873a10.455,10.455,0,0,0-.327,5.912,35.3,35.3,0,0,1-3.54-3.227,9.879,9.879,0,0,0,2.347-6,10.478,10.478,0,0,0-3-6.749l-.644-.645-.644.645A11.163,11.163,0,0,0,18.2,40.876a20.973,20.973,0,0,1-1.058-5.636,11.243,11.243,0,0,0,6.145-3.581,10.733,10.733,0,0,0,1.954-7.412l-.112-.928-.923.135a12.673,12.673,0,0,0-5.2,2.112,32.42,32.42,0,0,1,1.5-3.261,10.7,10.7,0,0,0,5.2-5.643c1.405-3.971-.5-8.148-.5-8.148Zm-1,2.649a8.945,8.945,0,0,1,.155,5.75,7.992,7.992,0,0,1-3.6,4.136,8.945,8.945,0,0,1-.155-5.75A7.992,7.992,0,0,1,23.83,10.305Zm26.6,0a7.992,7.992,0,0,1,3.6,4.136,8.945,8.945,0,0,1-.155,5.75,7.992,7.992,0,0,1-3.6-4.136A8.945,8.945,0,0,1,50.429,10.305ZM15.282,14.341a.91.91,0,1,0,.91.91A.91.91,0,0,0,15.282,14.341Zm43.7,0a.91.91,0,1,0,.91.91A.91.91,0,0,0,58.977,14.341ZM28.026,18.893a.91.91,0,1,0,.91.91A.91.91,0,0,0,28.026,18.893Zm18.206,0a.91.91,0,1,0,.91.91A.91.91,0,0,0,46.233,18.893Zm-33.938,1.46a8.843,8.843,0,0,1,3.575,4.415,7.909,7.909,0,0,1-.332,5.405,8.843,8.843,0,0,1-3.576-4.415A7.908,7.908,0,0,1,12.295,20.353Zm49.67,0a7.9,7.9,0,0,1,.332,5.4v0a8.843,8.843,0,0,1-3.575,4.415,7.908,7.908,0,0,1-.333-5.405A8.843,8.843,0,0,1,61.964,20.353ZM23.409,25.566a7.617,7.617,0,0,1-1.54,4.955,8.513,8.513,0,0,1-4.7,2.759,7.615,7.615,0,0,1,1.541-4.957A8.505,8.505,0,0,1,23.409,25.566Zm27.441,0a8.506,8.506,0,0,1,4.7,2.758,6.982,6.982,0,0,1,1.437,3.355c0,.006,0,.012,0,.018a10.032,10.032,0,0,1,.1,1.584,8.513,8.513,0,0,1-4.7-2.759A7.62,7.62,0,0,1,50.85,25.566ZM8.91,28a.91.91,0,1,0,.91.91A.91.91,0,0,0,8.91,28Zm56.44,0a.91.91,0,1,0,.91.91A.91.91,0,0,0,65.35,28ZM25.3,32.548a.91.91,0,1,0,.91.91A.91.91,0,0,0,25.3,32.548Zm23.668,0a.91.91,0,1,0,.91.91A.91.91,0,0,0,48.964,32.548ZM9.886,34.669a8.508,8.508,0,0,1,4.7,2.758,7.615,7.615,0,0,1,1.541,4.957,8.513,8.513,0,0,1-4.7-2.759A7.617,7.617,0,0,1,9.886,34.669Zm54.488,0a7.62,7.62,0,0,1-1.54,4.955,8.513,8.513,0,0,1-4.7,2.759,7.615,7.615,0,0,1,1.541-4.957A8.506,8.506,0,0,1,64.374,34.669ZM21.654,37.96a7.416,7.416,0,0,1,1.821,4.6,7.367,7.367,0,0,1-1.792,4.562q-.387-.478-.75-.98a6.727,6.727,0,0,1-1.1-3.583A7.416,7.416,0,0,1,21.654,37.96Zm30.951,0a7.416,7.416,0,0,1,1.821,4.6,6.727,6.727,0,0,1-1.1,3.583q-.362.5-.75.98a7.367,7.367,0,0,1-1.792-4.562A7.416,7.416,0,0,1,52.605,37.96ZM28.937,40.741a.91.91,0,1,0,.91.91A.91.91,0,0,0,28.937,40.741Zm16.386,0a.91.91,0,1,0,.91.91A.91.91,0,0,0,45.323,40.741ZM9.82,43.472a.91.91,0,1,0,.91.91A.91.91,0,0,0,9.82,43.472Zm54.619,0a.91.91,0,1,0,.91.91A.91.91,0,0,0,64.439,43.472ZM28.284,47.6A7.771,7.771,0,0,1,31.8,51.053a6.958,6.958,0,0,1,.3,4.674,7.773,7.773,0,0,1-3.517-3.451A6.957,6.957,0,0,1,28.284,47.6Zm17.691,0a6.957,6.957,0,0,1-.3,4.674,7.773,7.773,0,0,1-3.517,3.451,6.958,6.958,0,0,1,.3-4.674A7.771,7.771,0,0,1,45.975,47.6Zm-29.623.443a7.14,7.14,0,0,1,2.324.228A7.8,7.8,0,0,1,22.922,51.5a8.719,8.719,0,0,1-5.572.51A7.8,7.8,0,0,1,13.1,48.783,9.423,9.423,0,0,1,16.352,48.045Zm41.555,0a9.423,9.423,0,0,1,3.248.738,7.8,7.8,0,0,1-4.246,3.223,8.719,8.719,0,0,1-5.572-.51,7.8,7.8,0,0,1,4.246-3.224A7.14,7.14,0,0,1,57.907,48.045ZM37.13,54.4a.91.91,0,1,0,.91.91A.91.91,0,0,0,37.13,54.4Zm-20.937.91a.91.91,0,1,0,.91.91A.91.91,0,0,0,16.192,55.306Zm41.875,0a.91.91,0,1,0,.91.91A.91.91,0,0,0,58.067,55.306Zm-31.94.914a7.274,7.274,0,0,1,4.642,1.666,8.138,8.138,0,0,1-4.8,1.972A7.283,7.283,0,0,1,21.33,58.19,8.141,8.141,0,0,1,26.127,56.22Zm22,0a8.141,8.141,0,0,1,4.8,1.97,7.283,7.283,0,0,1-4.644,1.668,8.138,8.138,0,0,1-4.8-1.972A7.274,7.274,0,0,1,48.132,56.22ZM31.668,67.14a.91.91,0,1,0,.91.91A.91.91,0,0,0,31.668,67.14Zm10.924,0a.91.91,0,1,0,.91.91A.91.91,0,0,0,42.592,67.14Z" transform="translate(-7.991 -7.656)" fill="#ff5c31"/>
</svg>
