<svg xmlns="http://www.w3.org/2000/svg" width="35.367" height="35.371" viewBox="0 0 35.367 35.371">
  <path id="phone" d="M9.409,38.369h.038c6.041-.2,13.119-6.054,18-10.934S38.181,15.475,38.369,9.462c.069-2.11-5.109-5.863-5.162-5.9a2.491,2.491,0,0,0-3.448.245c-.415.575-4.34,6.522-4.767,7.2a2.832,2.832,0,0,0,.176,2.788c.3.581,1.316,2.358,1.79,3.187a42.241,42.241,0,0,1-4.66,5.31,42.316,42.316,0,0,1-5.313,4.663c-.829-.474-2.606-1.485-3.187-1.79a2.844,2.844,0,0,0-2.773-.182c-.722.443-6.654,4.387-7.2,4.767a2.061,2.061,0,0,0-.813,1.52A2.975,2.975,0,0,0,3.574,33.2C3.609,33.254,7.317,38.369,9.409,38.369Z" transform="translate(-3.003 -2.998)" fill="#fff"/>
</svg>
