<svg xmlns="http://www.w3.org/2000/svg" width="49.589" height="41.324" viewBox="0 0 49.589 41.324">
  <path id="teacher" d="M3.066,5v8.259a2.306,2.306,0,0,1,.317-.313,8.777,8.777,0,1,1,11.99,12.773,12.528,12.528,0,0,1,3.138.688l.059.02.056.026,2.381,1.031,3.184-3.89a4.91,4.91,0,0,1,3.281-2.038,4.732,4.732,0,0,1,.862-.079A5.084,5.084,0,0,1,32.1,23.223a5.166,5.166,0,0,1,.387,6.308c-.711,1.019-1.684,2.241-2.714,3.533-1.113,1.4-2.264,2.841-3.045,3.989l-.036.052-.04.052a4.857,4.857,0,0,1-3.529,1.915.209.209,0,0,1-.012.02H48.523V6.033A1.125,1.125,0,0,0,47.389,5Zm17.563,6.2h12.4v2.066h-12.4Zm15.5,0h7.232v2.066H36.126ZM9.781,12.232A6.715,6.715,0,1,0,16.5,18.947a6.715,6.715,0,0,0-6.715-6.715Zm10.848,4.132H43.358V18.43H20.629Zm7.561,7.183a2.721,2.721,0,0,0-.387.048,2.845,2.845,0,0,0-1.957,1.239L21.618,30,17.8,28.348a10.6,10.6,0,0,0-3.608-.619H6.67A5.727,5.727,0,0,0,1,33.411V46.324H17.493V34.857l4.639,2.066a2.7,2.7,0,0,0,2.885-1.033c1.547-2.273,4.332-5.476,5.775-7.543a3.107,3.107,0,0,0-.206-3.719A2.988,2.988,0,0,0,28.19,23.548ZM19.644,41.159v5.166H49.556a1.033,1.033,0,0,0,1.033-1.033V43.225a2.066,2.066,0,0,0-2.066-2.066Z" transform="translate(-1 -5)" fill="#2e303c"/>
</svg>
